<?xml version="1.0" standalone="no"?>
<!DOCTYPE svg PUBLIC "-//W3C//DTD SVG 20010904//EN"
 "http://www.w3.org/TR/2001/REC-SVG-20010904/DTD/svg10.dtd">
<svg version="1.0" xmlns="http://www.w3.org/2000/svg"
 width="625.000000pt" height="618.000000pt" viewBox="0 0 625.000000 618.000000"
 preserveAspectRatio="xMidYMid meet">

<g transform="translate(0.000000,618.000000) scale(0.100000,-0.100000)"
fill="#000000" stroke="none">
<path d="M0 3090 l0 -3090 3125 0 3125 0 0 3090 0 3090 -3125 0 -3125 0 0
-3090z m5885 3030 c-11 -5 -15 -9 -9 -9 6 -1 27 -3 45 -6 29 -4 30 -3 9 4 -18
6 -7 8 36 5 34 -2 73 0 88 5 17 7 27 7 32 -1 4 -6 3 -9 -2 -6 -5 3 -18 1 -29
-3 -13 -6 1 -7 40 -4 l60 6 -36 -38 -37 -38 -66 -350 c-93 -493 -155 -828
-226 -1215 -34 -184 -67 -340 -73 -346 -13 -12 -753 -565 -892 -666 l-90 -66
-155 -35 c-261 -60 -466 -105 -662 -145 l-188 -39 0 234 0 235 61 145 c33 80
63 158 66 174 3 16 9 29 14 29 5 0 9 7 9 15 0 9 9 33 20 55 11 22 20 47 20 58
0 10 18 54 40 99 21 44 57 125 79 179 22 55 61 149 86 209 25 61 71 175 103
254 l56 143 61 40 c139 94 214 151 208 161 -3 6 -1 7 5 3 7 -4 17 -2 24 4 7 6
22 18 33 26 20 15 19 15 -2 5 -26 -13 -33 -14 -32 -3 3 20 -2 32 -12 26 -8 -5
-8 -1 0 14 14 27 14 33 -1 29 -8 -1 -12 9 -11 28 2 25 1 27 -6 10 -8 -17 -10
-18 -10 -2 -1 9 -7 17 -13 17 -8 0 -9 3 -3 8 6 4 16 19 22 35 7 15 17 27 23
27 7 0 4 -7 -4 -16 -9 -8 -16 -23 -16 -32 0 -13 2 -14 9 -3 6 9 25 12 64 10
30 -2 53 -1 51 2 -2 4 6 9 18 12 13 4 26 1 30 -6 5 -8 8 -6 8 7 0 16 2 16 16
6 13 -11 16 -10 20 7 3 12 15 24 26 26 13 4 17 10 12 18 -4 8 -3 10 4 5 6 -4
10 -12 8 -19 -1 -7 -1 -9 1 -4 3 4 13 7 23 7 27 0 34 19 15 40 -16 18 -16 18
3 13 15 -4 20 0 19 14 -1 10 4 17 11 16 6 -2 12 4 12 13 0 9 5 12 12 8 8 -5
10 3 6 27 -3 19 -1 43 3 54 8 17 9 15 6 -7 -3 -16 0 -28 4 -28 5 0 9 9 9 21 0
11 5 17 10 14 6 -3 10 0 11 7 2 31 8 56 23 97 9 24 13 48 9 54 -4 6 -1 7 7 2
10 -6 12 -1 7 21 -3 16 -4 23 -1 17 3 -7 10 -13 15 -13 6 0 8 4 5 9 -8 12 4
42 14 36 4 -3 7 6 6 20 -1 23 -2 24 -13 8 -7 -9 -13 -21 -13 -27 0 -5 -3 -7
-6 -4 -15 15 42 88 63 81 7 -3 20 1 30 7 16 10 16 10 -2 5 -17 -4 -21 0 -23
21 -2 22 2 25 18 21 10 -3 20 -1 22 3 2 5 9 10 17 12 8 2 23 11 33 21 18 17
48 23 48 9 0 -4 18 -7 39 -7 22 0 34 3 28 7 -7 4 12 8 41 8 31 0 52 4 52 11 0
7 13 10 34 7 19 -2 32 0 29 5 -3 5 4 6 17 2 12 -4 20 -3 17 1 -5 10 -3 10 148
16 55 2 110 10 122 16 12 7 28 12 35 12 7 -1 2 -7 -12 -14 -24 -14 -24 -14 13
-13 22 1 32 4 24 9 -8 5 -3 8 13 8 14 0 32 5 40 10 8 5 22 9 30 9 10 0 8 -3
-5 -9z m-2489 -10 c15 -6 46 -13 68 -15 23 -3 64 -8 91 -11 28 -3 74 -7 103
-8 55 -1 60 -4 40 -25 -11 -10 -5 -11 29 -5 27 4 58 1 90 -10 26 -8 57 -15 68
-14 11 0 48 -9 82 -21 35 -12 67 -20 73 -16 6 3 23 -3 38 -14 17 -11 37 -18
49 -15 13 4 22 0 26 -10 4 -9 14 -16 24 -16 10 0 24 -9 31 -21 7 -12 16 -19
19 -16 2 3 25 -1 50 -8 26 -8 49 -14 52 -13 18 2 33 -3 28 -9 -4 -3 3 -11 16
-18 12 -6 21 -18 19 -26 -2 -8 0 -11 3 -7 9 9 65 -19 65 -32 0 -6 6 -10 13
-10 7 0 19 -9 27 -20 14 -20 37 -29 25 -10 -3 6 -1 10 4 10 19 0 12 -30 -6
-31 -17 -1 -17 -2 0 -6 26 -7 20 -19 -15 -29 -35 -10 -7 29 -622 -889 -188
-280 -437 -655 -554 -832 -117 -178 -215 -323 -219 -323 -5 1 -21 22 -38 48
-48 77 -773 1167 -1059 1592 -257 382 -267 395 -308 409 l-43 14 74 20 c61 16
71 22 58 32 -14 10 -14 12 4 23 23 15 32 15 24 2 -3 -5 1 -10 9 -10 10 0 13 6
9 17 -5 11 -3 14 6 9 8 -5 26 4 48 25 20 19 33 28 28 21 -6 -11 -3 -11 14 0
12 7 21 17 21 21 0 5 8 7 17 6 10 -1 25 -1 33 0 13 1 13 2 0 11 -11 7 -5 10
25 10 30 0 36 3 25 10 -11 7 -6 10 20 10 20 0 41 5 47 11 5 5 24 11 42 11 17
1 31 4 31 8 0 11 49 30 79 30 15 0 37 9 49 20 12 12 22 16 22 9 0 -14 72 -2
82 14 6 9 8 9 8 0 0 -19 18 -16 42 7 20 18 44 19 33 0 -6 -10 10 -7 45 7 14 6
45 14 70 18 25 4 52 13 61 21 12 11 69 16 245 20 126 3 245 5 264 5 55 -3 106
9 89 20 -20 13 73 12 107 -1z m-3184 -15 c25 0 41 -3 35 -7 -7 -5 1 -8 18 -7
17 0 98 -11 180 -26 144 -25 348 -39 338 -22 -2 4 8 4 24 0 15 -4 48 -7 73 -7
28 1 38 -2 25 -6 -15 -5 -9 -8 23 -13 23 -4 42 -11 42 -16 0 -5 -16 -5 -37 0
-49 11 -90 11 -53 0 47 -15 126 -23 110 -12 -13 10 -13 11 0 11 13 0 13 1 0
11 -13 9 -13 10 0 6 8 -2 16 -9 16 -15 1 -7 2 -16 3 -21 0 -4 24 -11 51 -14
61 -7 70 -12 70 -39 0 -11 25 -107 56 -212 31 -105 60 -205 65 -221 5 -19 21
-37 41 -48 18 -10 25 -12 16 -4 -25 20 -22 35 5 33 14 -1 21 -7 19 -16 -3 -12
-1 -12 9 -3 6 6 19 9 28 6 13 -4 14 -3 1 5 -8 6 -18 8 -24 5 -5 -3 -6 -1 -2 5
9 15 59 -7 52 -24 -3 -8 3 -10 16 -6 16 4 19 2 13 -9 -7 -12 -6 -12 7 -1 13
10 17 10 20 0 4 -10 8 -10 21 1 15 12 18 10 29 -20 7 -19 12 -37 10 -41 -1 -3
10 -5 23 -3 23 2 41 -11 60 -44 5 -9 4 -12 -3 -7 -11 7 -17 -6 -13 -27 1 -5
-3 -6 -9 -2 -5 3 -10 2 -10 -4 0 -6 -7 -8 -15 -4 -16 5 -12 17 6 19 5 1 11 2
14 3 3 0 0 11 -6 24 -11 20 -11 21 4 8 10 -7 17 -9 17 -3 0 5 -7 15 -15 22
-11 9 -15 9 -15 1 0 -7 -6 -9 -12 -5 -10 6 -10 4 0 -7 16 -17 16 -32 0 -23 -7
4 -10 4 -6 -1 4 -4 3 -13 -2 -20 -12 -14 75 -79 92 -69 6 4 8 3 5 -3 -4 -6 65
-61 161 -128 l167 -117 74 -177 c41 -97 93 -221 116 -276 23 -55 91 -212 150
-350 59 -137 129 -299 155 -360 26 -60 57 -129 68 -152 19 -37 22 -64 27 -240
3 -109 8 -223 10 -253 l5 -55 -24 29 c-22 26 -40 31 -257 76 -387 80 -727 156
-765 170 -26 10 -269 180 -414 290 -41 31 -191 143 -332 248 -205 154 -257
197 -262 220 -3 15 -15 81 -26 147 -37 210 -138 734 -239 1249 l-98 500 -39
33 -39 34 50 -8 c28 -4 71 -8 97 -8z m401 -52 c-7 -2 -19 -2 -25 0 -7 3 -2 5
12 5 14 0 19 -2 13 -5z m50 -10 c-7 -2 -19 -2 -25 0 -7 3 -2 5 12 5 14 0 19
-2 13 -5z m414 -59 c-3 -3 -12 -4 -19 -1 -8 3 -5 6 6 6 11 1 17 -2 13 -5z
m175 -304 c5 0 7 -7 4 -16 -3 -9 1 -25 9 -37 8 -12 15 -32 15 -45 0 -21 2 -22
15 -12 13 10 15 9 15 -8 0 -12 5 -24 10 -27 6 -4 8 -11 5 -16 -4 -5 -1 -9 4
-9 6 0 11 -6 11 -12 0 -8 -13 -13 -33 -13 -19 0 -34 5 -33 10 2 24 -17 110
-25 116 -5 3 -13 27 -19 55 -18 89 -20 110 -4 62 8 -27 20 -48 26 -48z m513
80 c-3 -5 -14 -10 -23 -10 -15 0 -15 2 -2 10 20 13 33 13 25 0z m2802 -35 c0
-8 -4 -12 -9 -9 -5 3 -6 10 -3 15 9 13 12 11 12 -6z m6 -32 c-7 -2 -13 -12
-13 -20 0 -9 -3 -14 -6 -10 -10 10 4 37 18 36 10 0 10 -2 1 -6z m-19 -88 c5
-22 4 -26 -4 -15 -5 8 -10 24 -10 34 0 26 6 18 14 -19z m-2860 -20 c5 -22 4
-26 -4 -15 -5 8 -10 24 -10 34 0 26 6 18 14 -19z m2819 -146 c-5 -5 -7 7 -4
29 5 34 6 35 9 8 2 -16 0 -32 -5 -37z m342 41 c-3 -5 -10 -10 -16 -10 -5 0 -9
5 -9 10 0 6 7 10 16 10 8 0 12 -4 9 -10z m-318 -42 c-3 -8 -6 -5 -6 6 -1 11 2
17 5 13 3 -3 4 -12 1 -19z m-2988 -37 c9 -6 10 -11 2 -15 -13 -8 -31 1 -31 15
0 11 11 11 29 0z m1930 -1651 c-9 -59 -29 -1098 -29 -1554 0 -270 -1 -279 -18
-263 -17 15 -50 17 -310 15 -161 -2 -292 0 -292 5 0 4 80 7 178 7 118 0 172 4
162 10 -12 8 -11 10 7 10 12 0 23 -5 25 -12 3 -7 7 -5 11 6 7 17 3 18 -32 13
-45 -6 -75 7 -51 23 12 7 11 9 -5 9 -38 -1 -120 23 -132 38 -6 8 -14 10 -17 5
-8 -13 -59 -2 -69 14 -4 8 -12 14 -17 14 -20 0 -46 -41 -48 -77 -5 -74 -12
-44 -12 53 -1 140 -10 709 -19 1179 -8 373 -10 404 -30 453 -33 83 -24 93 18
22 21 -36 101 -161 178 -278 l140 -214 55 79 c48 68 104 155 200 305 15 24 46
78 68 122 23 43 43 76 45 75 1 -2 -1 -29 -6 -59z m2157 -151 c-9 -33 -19 -139
-25 -269 -64 -1341 -86 -1724 -91 -1605 -3 69 -3 69 -11 25 -6 -37 -7 -31 -5
30 2 41 0 66 -4 55 -7 -19 -8 -18 -12 5 -3 14 -4 -4 -2 -40 2 -54 1 -58 -5
-25 -6 29 -9 33 -10 15 -1 -22 -3 -23 -12 -7 -6 9 -7 27 -4 38 5 14 3 19 -3
15 -6 -3 -13 -2 -17 4 -8 13 -35 -13 -35 -34 0 -12 -10 -16 -39 -16 -22 0 -43
-5 -47 -11 -5 -8 -9 -8 -14 1 -6 10 -12 9 -29 -2 -11 -8 -18 -18 -14 -21 3 -4
-22 -7 -56 -7 -34 0 -60 4 -57 9 8 12 -20 22 -39 15 -8 -4 -12 -10 -9 -15 3
-5 -18 -9 -45 -9 -28 0 -51 5 -51 10 0 6 -9 10 -20 10 -20 0 -28 -16 -11 -22
6 -1 -29 -4 -77 -5 -48 -1 -89 2 -92 8 -4 6 -15 6 -31 0 -13 -5 -18 -10 -11
-10 26 -2 0 -21 -28 -21 -16 0 -36 -7 -44 -16 -15 -14 -16 -13 -17 13 l-1 28
-8 -30 c-7 -27 -8 -27 -9 -6 0 13 -4 21 -8 17 -5 -4 -10 -92 -13 -194 -4 -107
-7 65 -8 402 l-2 588 -25 -4 c-15 -3 -25 -1 -25 6 0 12 356 368 401 402 19 14
38 53 73 147 25 71 44 132 41 136 -4 8 51 53 250 202 138 103 293 227 301 240
14 23 14 -2 0 -52z m-4934 -46 c21 -15 131 -99 246 -186 l209 -158 48 -137 48
-137 203 -198 202 -197 3 -813 c1 -446 3 -845 4 -884 1 -40 1 -73 -1 -73 -10
0 -26 48 -29 84 -2 22 -9 403 -15 846 -12 789 -12 805 -32 827 -12 12 -26 20
-32 16 -6 -3 -8 -2 -3 2 8 10 -42 67 -53 60 -4 -3 -16 5 -26 18 l-19 22 25
-20 c14 -10 1 6 -29 37 -48 50 -57 56 -75 46 -19 -10 -20 -10 -7 6 13 16 9 23
-42 74 -44 44 -59 54 -69 44 -9 -9 -8 -16 5 -30 22 -24 22 -39 0 -17 -18 19
-27 78 -9 68 6 -4 -1 7 -16 25 -14 17 -28 37 -31 44 -2 7 -8 10 -12 5 -5 -4 1
-20 12 -35 16 -21 18 -29 7 -29 -8 0 -14 7 -15 16 0 12 -3 11 -10 -4 -8 -18
-9 -17 -5 4 3 16 -1 30 -12 38 -9 8 -12 12 -6 9 22 -11 34 18 22 52 -13 35
-25 41 -34 17 -5 -13 -9 -13 -22 -3 -14 11 -15 10 -8 -7 6 -18 5 -17 -17 3
-18 17 -26 20 -30 10 -2 -7 -8 -1 -12 15 -4 15 -15 32 -25 37 -12 6 -16 17
-13 30 4 15 0 20 -13 20 -16 0 -17 -2 -4 -10 13 -8 13 -11 -1 -26 -19 -18 -52
-7 -63 21 -3 8 -17 15 -31 15 -17 0 -29 8 -37 25 -12 26 -32 33 -43 15 -10
-16 -35 8 -35 32 0 15 -5 18 -20 13 -30 -9 -60 4 -60 26 0 10 -4 19 -9 19 -4
0 -7 -12 -5 -27 3 -23 2 -22 -7 6 -11 36 -24 32 -32 -9 -3 -17 -5 -10 -7 20
l-3 45 -7 -40 c-6 -35 -7 -31 -7 27 -1 36 -3 70 -6 75 -3 5 -7 50 -8 99 -1 80
-10 134 -33 201 -6 19 -2 18 31 -12 21 -18 55 -46 75 -62z m477 -584 c8 -23 8
-30 -2 -26 -6 2 -11 12 -9 22 3 14 1 15 -11 4 -8 -8 -12 -18 -9 -23 3 -5 0 -6
-6 -2 -9 5 -7 14 5 31 10 14 19 25 20 25 0 0 6 -14 12 -31z m1383 -639 l-2
-640 567 0 c513 0 568 -2 585 -17 10 -9 18 -20 18 -25 0 -4 -272 -8 -605 -8
l-605 0 -1 228 c-2 248 -14 547 -19 467 -2 -27 -3 -56 -3 -64 2 -21 -15 2 -20
29 -2 14 -5 -2 -7 -35 -3 -66 -5 -61 -16 30 -6 55 -8 58 -15 29 -11 -38 -35
-40 -43 -2 -4 22 -11 28 -31 28 -15 0 -24 4 -20 10 8 13 -51 42 -105 51 -94
17 -110 22 -110 35 0 13 -25 19 -58 15 -8 -1 -23 5 -33 15 -15 13 -19 14 -19
3 0 -11 -2 -11 -10 1 -5 8 -10 11 -10 5 0 -5 -5 -2 -11 9 -9 15 -13 16 -20 5
-7 -12 -9 -11 -10 1 0 8 -5 4 -10 -10 -6 -17 -7 -5 -4 40 2 43 1 57 -5 40 -7
-23 -8 -22 -9 12 -1 29 -6 40 -27 51 -25 13 -19 17 188 114 117 55 260 122
318 149 58 26 114 54 125 61 11 7 22 13 25 13 3 0 4 -288 2 -640z m1418 495
c388 -187 383 -184 372 -198 -6 -7 -13 -236 -17 -557 -5 -300 -9 -558 -10
-575 -1 -16 -3 -133 -4 -258 -1 -149 -4 -226 -11 -222 -6 4 -11 174 -12 473
-1 257 -4 423 -7 370 -3 -53 -9 -100 -14 -104 -4 -4 -7 -2 -7 5 0 7 -4 9 -10
6 -5 -3 -10 2 -10 11 0 14 -3 15 -12 6 -15 -15 -78 -16 -78 -1 0 7 -29 10 -90
7 -50 -1 -90 1 -90 6 0 14 -42 46 -61 46 -10 0 -30 -11 -44 -26 -14 -14 -30
-22 -35 -19 -6 4 -8 10 -6 14 3 4 -2 8 -11 8 -9 0 -18 -8 -20 -18 -3 -10 -11
-15 -19 -12 -10 4 -14 -3 -14 -23 0 -16 -7 -38 -15 -48 -13 -18 -15 -6 -15
115 0 74 -3 343 -6 599 -6 427 -8 468 -25 498 -10 17 -17 32 -15 32 2 0 131
-61 286 -135z m-2683 -21 c20 -19 22 -24 7 -16 -21 11 -51 42 -41 42 3 0 19
-12 34 -26z m46 -49 c4 -8 1 -17 -6 -21 -7 -4 -9 -4 -5 1 4 4 3 14 -3 22 -7 8
-8 13 -1 13 5 0 12 -7 15 -15z m66 -58 c8 -10 7 -14 -2 -14 -8 0 -14 6 -14 14
0 7 1 13 2 13 2 0 8 -6 14 -13z m2878 -1009 c-3 -8 -6 -5 -6 6 -1 11 2 17 5
13 3 -3 4 -12 1 -19z m1229 -205 c-3 -7 -11 -13 -18 -13 -10 0 -10 2 0 9 8 4
13 11 13 15 -1 3 0 36 1 74 l2 67 3 -69 c2 -38 2 -75 -1 -83z m-56 -37 c0 -2
-8 -10 -17 -17 -16 -13 -17 -12 -4 4 13 16 21 21 21 13z m-40 -30 c0 -2 -8
-10 -17 -17 -16 -13 -17 -12 -4 4 13 16 21 21 21 13z m-1838 -715 c124 -325
150 -400 142 -413 -4 -7 -3 -8 4 -4 8 5 12 0 12 -13 0 -40 -25 -10 -57 67 -18
42 -55 135 -82 207 -28 72 -72 186 -99 255 l-49 125 -329 2 c-328 3 -329 3
-348 25 l-18 23 363 5 364 5 3 -24 c2 -13 44 -130 94 -260z"/>
<path d="M5998 6093 c6 -2 18 -2 25 0 6 3 1 5 -13 5 -14 0 -19 -2 -12 -5z"/>
<path d="M5928 6083 c6 -2 18 -2 25 0 6 3 1 5 -13 5 -14 0 -19 -2 -12 -5z"/>
<path d="M5738 6053 c6 -2 18 -2 25 0 6 3 1 5 -13 5 -14 0 -19 -2 -12 -5z"/>
<path d="M5688 6043 c7 -3 16 -2 19 1 4 3 -2 6 -13 5 -11 0 -14 -3 -6 -6z"/>
<path d="M5076 5924 c12 -5 -40 -123 -60 -136 -6 -4 -8 -10 -4 -13 8 -8 -12
-68 -26 -77 -6 -4 -11 -17 -12 -30 -2 -43 -16 -88 -26 -82 -5 3 -6 -6 -3 -23
5 -23 4 -25 -5 -13 -10 13 -11 12 -6 -4 10 -30 -13 -96 -42 -122 -15 -13 -24
-24 -20 -24 4 0 13 6 20 13 7 7 26 18 42 25 16 7 26 15 23 19 -4 3 1 19 9 35
8 16 12 39 9 51 -4 15 -3 18 3 9 7 -11 11 -8 16 13 4 14 4 31 0 37 -4 7 -3 8
4 4 7 -4 12 -3 12 3 0 5 3 17 7 27 4 11 3 15 -4 11 -7 -5 -9 0 -6 13 3 11 9
20 14 20 5 0 5 7 2 17 -5 12 -3 14 7 8 10 -6 12 -4 7 10 -4 9 -3 23 2 29 14
17 33 68 22 62 -4 -3 0 11 10 32 10 20 21 49 25 65 5 22 3 27 -12 26 -11 0
-14 -3 -8 -5z"/>
<path d="M4765 5363 c1 -10 -3 -24 -9 -32 -7 -9 -1 -8 17 3 31 21 35 28 10 19
-10 -4 -14 -2 -9 5 3 6 2 13 -3 16 -5 4 -8 -2 -6 -11z"/>
<path d="M5394 5307 c-57 -35 -382 -253 -951 -637 -46 -30 -83 -59 -83 -64 0
-4 -24 -76 -54 -160 -29 -83 -57 -167 -61 -186 l-7 -35 28 26 c16 15 112 83
214 151 102 69 338 227 525 353 187 126 350 236 361 244 17 13 28 44 49 146
15 72 34 145 41 164 8 19 13 36 11 37 -2 2 -35 -16 -73 -39z m-554 -431 c0 -2
-12 -11 -27 -20 l-28 -17 24 20 c23 21 31 25 31 17z m-80 -50 c0 -2 -8 -10
-17 -17 -16 -13 -17 -12 -4 4 13 16 21 21 21 13z m-70 -50 c0 -3 -15 -14 -32
-26 l-33 -22 30 26 c31 27 35 29 35 22z m-101 -74 c-13 -10 -51 -35 -84 -57
-33 -22 -70 -48 -82 -59 -13 -11 -25 -17 -28 -14 -6 5 194 146 209 147 5 1 -2
-7 -15 -17z m-278 -375 c-10 -9 -11 -8 -5 6 3 10 9 15 12 12 3 -3 0 -11 -7
-18z"/>
<path d="M5260 4548 c-63 -39 -157 -100 -210 -137 -94 -67 -325 -222 -550
-370 -63 -42 -173 -115 -244 -162 l-130 -87 -56 -171 c-31 -94 -55 -171 -54
-171 2 0 15 11 30 25 14 13 67 46 118 73 122 66 247 145 727 464 l406 269 28
137 c15 75 34 150 42 165 8 16 13 30 11 32 -2 2 -55 -28 -118 -67z m-335 -288
c-3 -6 -21 -17 -38 -26 -36 -19 -31 -9 10 17 34 21 36 22 28 9z m-85 -53 c0
-2 -15 -13 -32 -26 l-33 -22 28 25 c26 24 37 31 37 23z m-95 -67 c-3 -5 -16
-15 -28 -21 -19 -9 -19 -8 3 10 28 23 34 26 25 11z m-55 -34 c0 -4 -249 -173
-280 -191 -40 -21 16 20 139 104 134 91 141 95 141 87z m-338 -228 c-6 -7 -25
-22 -44 -32 -36 -20 -30 -12 16 22 32 25 44 28 28 10z m-82 -52 c0 -2 -27 -22
-60 -45 -33 -22 -58 -35 -54 -30 3 6 29 26 58 44 55 36 56 37 56 31z"/>
<path d="M2390 5980 c-9 -6 -10 -10 -3 -10 6 0 15 5 18 10 8 12 4 12 -15 0z"/>
<path d="M2048 5873 c7 -3 16 -2 19 1 4 3 -2 6 -13 5 -11 0 -14 -3 -6 -6z"/>
<path d="M1958 5793 c7 -3 16 -2 19 1 4 3 -2 6 -13 5 -11 0 -14 -3 -6 -6z"/>
<path d="M4428 5773 c7 -3 16 -2 19 1 4 3 -2 6 -13 5 -11 0 -14 -3 -6 -6z"/>
<path d="M1810 5760 c8 -5 20 -10 25 -10 6 0 3 5 -5 10 -8 5 -19 10 -25 10 -5
0 -3 -5 5 -10z"/>
<path d="M2480 5445 c0 -2 15 -18 33 -37 17 -19 74 -104 126 -189 73 -120 453
-721 467 -738 4 -5 311 471 514 797 35 57 79 117 97 133 l34 29 -618 1 c-340
0 -626 2 -635 4 -10 2 -18 2 -18 0z m443 -62 c-13 -2 -35 -2 -50 0 -16 2 -5 4
22 4 28 0 40 -2 28 -4z m265 0 c-38 -2 -98 -2 -135 0 -38 2 -7 3 67 3 74 0
105 -1 68 -3z m325 0 c-24 -2 -62 -2 -85 0 -24 2 -5 4 42 4 47 0 66 -2 43 -4z"/>
<path d="M738 6013 c7 -3 16 -2 19 1 4 3 -2 6 -13 5 -11 0 -14 -3 -6 -6z"/>
<path d="M1365 5400 c-3 -6 1 -7 9 -4 18 7 21 14 7 14 -6 0 -13 -4 -16 -10z"/>
<path d="M1412 5371 c-11 -7 -11 -9 0 -14 9 -3 15 1 15 9 0 8 -1 14 -1 14 -1
0 -7 -4 -14 -9z"/>
<path d="M780 5317 c11 -19 29 -91 43 -175 14 -78 26 -144 28 -146 2 -1 60
-41 129 -88 602 -410 961 -650 966 -645 3 3 23 -14 45 -37 l39 -41 -46 130
c-25 72 -57 162 -70 200 l-24 70 -348 238 c-191 131 -396 272 -457 314 -212
146 -312 213 -318 213 -3 0 2 -15 13 -33z m1020 -734 c0 -7 -61 31 -73 46 -7
8 7 2 31 -14 23 -15 42 -30 42 -32z m31 -20 c13 -16 12 -17 -3 -4 -10 7 -18
15 -18 17 0 8 8 3 21 -13z"/>
<path d="M872 4579 c17 -29 35 -91 53 -179 15 -74 30 -138 33 -141 33 -31 933
-618 1057 -688 88 -51 175 -106 193 -123 17 -18 32 -29 32 -25 0 3 -25 83 -55
176 -41 124 -62 175 -78 186 -12 9 -287 193 -612 408 -324 216 -603 401 -619
411 l-29 20 25 -45z m748 -536 c0 -7 -39 17 -46 28 -3 6 5 3 20 -6 14 -10 26
-19 26 -22z m170 -109 c0 -2 -9 0 -20 6 -11 6 -20 13 -20 16 0 2 9 0 20 -6 11
-6 20 -13 20 -16z m145 -94 c3 -5 -10 -1 -29 11 -20 12 -36 23 -36 25 0 7 58
-25 65 -36z m145 -96 c0 -2 -9 0 -20 6 -11 6 -20 13 -20 16 0 2 9 0 20 -6 11
-6 20 -13 20 -16z"/>
<path d="M3410 2231 c0 -235 -3 -276 -21 -265 -5 3 -9 0 -9 -5 0 -6 9 -11 20
-11 19 0 20 7 20 260 0 143 -2 260 -5 260 -3 0 -5 -108 -5 -239z"/>
<path d="M3178 2013 c7 -3 16 -2 19 1 4 3 -2 6 -13 5 -11 0 -14 -3 -6 -6z"/>
<path d="M3188 1993 c12 -2 30 -2 40 0 9 3 -1 5 -23 4 -22 0 -30 -2 -17 -4z"/>
<path d="M3225 1960 c-4 -6 12 -10 42 -9 36 0 43 3 28 9 -28 12 -63 12 -70 0z"/>
<path d="M5501 1924 c0 -11 3 -14 6 -6 3 7 2 16 -1 19 -3 4 -6 -2 -5 -13z"/>
<path d="M5523 1895 c0 -22 2 -30 4 -17 2 12 2 30 0 40 -3 9 -5 -1 -4 -23z"/>
<path d="M664 3498 c-4 -6 -3 -8 3 -5 11 7 37 -16 28 -24 -2 -3 5 -5 15 -5 11
0 20 1 20 1 0 1 -13 11 -29 23 -21 15 -32 18 -37 10z"/>
<path d="M671 3264 c0 -11 3 -14 6 -6 3 7 2 16 -1 19 -3 4 -6 -2 -5 -13z"/>
<path d="M925 3271 c-3 -5 -2 -12 3 -15 5 -3 9 1 9 9 0 17 -3 19 -12 6z"/>
<path d="M1004 3246 c1 -8 5 -18 8 -22 4 -3 5 1 4 10 -1 8 -5 18 -8 22 -4 3
-5 -1 -4 -10z"/>
<path d="M1065 3191 c-3 -5 -2 -12 3 -15 5 -3 9 1 9 9 0 17 -3 19 -12 6z"/>
<path d="M1125 3101 c-3 -5 -2 -12 3 -15 5 -3 9 1 9 9 0 17 -3 19 -12 6z"/>
<path d="M1063 3065 c-3 -9 -3 -18 -1 -21 3 -3 8 4 11 16 6 23 -1 27 -10 5z"/>
<path d="M1145 3038 c5 -25 4 -29 -4 -18 -7 9 -11 10 -11 3 0 -16 14 -23 28
-14 10 6 10 15 3 34 -14 37 -24 34 -16 -5z"/>
<path d="M1107 3053 c-4 -3 -7 -20 -6 -37 l1 -31 8 35 c9 36 8 45 -3 33z"/>
<path d="M2140 2705 c-14 -8 -20 -14 -14 -15 5 0 19 7 30 15 24 18 16 19 -16
0z"/>
<path d="M2065 2670 c-22 -11 -34 -19 -27 -20 14 0 72 28 72 35 0 7 0 7 -45
-15z"/>
<path d="M1955 2620 c-3 -5 -2 -10 4 -10 5 0 13 5 16 10 3 6 2 10 -4 10 -5 0
-13 -4 -16 -10z"/>
<path d="M2502 2470 c0 -14 2 -19 5 -12 2 6 2 18 0 25 -3 6 -5 1 -5 -13z"/>
<path d="M3752 1745 c0 -16 2 -22 5 -12 2 9 2 23 0 30 -3 6 -5 -1 -5 -18z"/>
</g>
</svg>
